<?xml version="1.0" encoding="iso-8859-1"?>
<!-- Uploaded to: SVG Repo, www.svgrepo.com, Generator: SVG Repo Mixer Tools -->
<svg version="1.1" id="Layer_1" xmlns="http://www.w3.org/2000/svg" xmlns:xlink="http://www.w3.org/1999/xlink" 
	 viewBox="0 0 269.124 269.124" xml:space="preserve">
<g>
	
		<rect x="131.941" y="54.551" transform="matrix(-0.7071 0.7071 -0.7071 -0.7071 373.3701 17.447)" style="fill:#28D2E4;" width="102.262" height="62.999"/>
	<polygon style="fill:#13829B;" points="124.644,99.932 47.756,190.962 78.161,221.368 169.192,144.479 	"/>
	<path style="fill:#13829B;" d="M252.416,61.256c12.301-12.301,12.301-32.246,0-44.548l0,0c-12.301-12.302-32.246-12.302-44.548,0
		l-10.913,10.913l44.548,44.548L252.416,61.256z"/>
	<path style="fill:#FFDB77;" d="M78.161,221.368c-3.229-3.229-27.28-27.28-30.406-30.406L7.5,217.076l0.106,44.442l44.442,0.105
		L78.161,221.368z"/>
	<path style="fill:#22313F;" d="M257.72,11.405c-15.208-15.206-39.95-15.207-55.154,0C90.266,123.7,142.48,67.192,42.744,185.274
		l-39.326,25.51c-2.137,1.386-3.424,3.762-3.418,6.31l0.105,44.42c0,0.003,0,0.006,0,0.008v0.013
		c0.013,4.15,3.388,7.474,7.482,7.482l44.442,0.106c0.006,0,0.012,0,0.018,0c2.54,0,4.909-1.286,6.292-3.418l25.508-39.323
		c117.27-99.051,60.787-46.738,173.872-159.824C272.925,51.353,272.925,26.611,257.72,11.405z M169.193,133.872l-33.941-33.941
		l61.704-61.704l33.941,33.941L169.193,133.872z M47.98,254.114l-22.31-0.053l18.836-18.836c2.929-2.929,2.929-7.678,0-10.606
		c-2.929-2.929-7.677-2.93-10.607,0l-18.836,18.835l-0.053-22.31l31.735-20.586l21.82,21.821L47.98,254.114z M78.589,211.189
		l-20.655-20.655l67.175-79.531l33.01,33.01L78.589,211.189z M247.112,55.952l-5.609,5.61l-33.941-33.941l5.61-5.609
		c9.379-9.379,24.561-9.382,33.94,0C256.47,31.369,256.47,46.595,247.112,55.952z"/>
</g>
</svg>